<?xml version="1.0" standalone="no"?>
<!DOCTYPE svg PUBLIC "-//W3C//DTD SVG 20010904//EN"
 "http://www.w3.org/TR/2001/REC-SVG-20010904/DTD/svg10.dtd">
<svg version="1.0" xmlns="http://www.w3.org/2000/svg"
 width="1416.000000pt" height="664.000000pt" viewBox="0 0 1416.000000 664.000000"
 preserveAspectRatio="xMidYMid meet">

<g transform="translate(0.000000,664.000000) scale(0.100000,-0.100000)"
fill="#000000" stroke="none">
<path d="M4240 3170 l0 -700 430 0 430 0 0 85 0 85 -295 0 -295 0 0 225 0 225
215 0 215 0 0 85 0 85 -215 0 -215 0 0 220 0 220 295 0 295 0 0 85 0 85 -430
0 -430 0 0 -700z"/>
<path d="M3183 3800 c-104 -22 -157 -79 -182 -198 -15 -70 -15 -608 0 -687 20
-107 62 -164 143 -192 44 -16 88 -18 321 -18 l270 0 56 28 c70 34 105 84 125
175 18 89 19 599 1 688 -20 94 -56 147 -124 181 l-58 28 -255 2 c-140 1 -274
-2 -297 -7z m437 -188 c39 -39 42 -71 38 -392 -3 -295 -7 -317 -55 -339 -32
-15 -255 -14 -287 0 -16 8 -32 29 -43 58 -16 40 -18 81 -18 316 0 385 0 385
207 385 129 0 130 0 158 -28z"/>
</g>
</svg>
